<svg width="10" height="10" viewBox="0 0 10 10" fill="none" xmlns="http://www.w3.org/2000/svg">
<path d="M6.81877 8.63778C6.78183 8.6378 6.74525 8.63054 6.71112 8.61641C6.67698 8.60229 6.64596 8.58158 6.61983 8.55547L3.15315 5.08859C3.10042 5.03585 3.0708 4.96433 3.0708 4.88975C3.0708 4.81517 3.10042 4.74365 3.15315 4.69091L6.61983 1.22403C6.64595 1.19791 6.67695 1.17718 6.71107 1.16304C6.74519 1.14889 6.78177 1.14161 6.81871 1.1416C6.85564 1.14159 6.89222 1.14886 6.92635 1.16299C6.96048 1.17711 6.99149 1.19783 7.01762 1.22394C7.04374 1.25005 7.06447 1.28105 7.07861 1.31518C7.09275 1.3493 7.10004 1.38587 7.10005 1.42281C7.10005 1.45975 7.09279 1.49632 7.07866 1.53045C7.06453 1.56458 7.04382 1.59559 7.01771 1.62172L3.74977 4.88966L7.01771 8.15759C7.05707 8.19693 7.08388 8.24705 7.09474 8.30162C7.1056 8.3562 7.10003 8.41277 7.07873 8.46418C7.05744 8.51558 7.02137 8.55952 6.97509 8.59042C6.92882 8.62132 6.87442 8.6378 6.81877 8.63778Z" fill="#111111"/>
</svg>
