<svg width="16" height="16" viewBox="0 0 16 16" fill="none" xmlns="http://www.w3.org/2000/svg">
<path d="M12.832 10.3694L11.408 9.55292L12.6456 9.00917C12.818 8.93342 12.8974 8.73167 12.8219 8.55867C12.7479 8.39129 12.54 8.30917 12.3712 8.38292L10.6705 9.13004L8.68736 7.99279L10.661 6.85354L12.381 7.60254C12.5556 7.67779 12.7577 7.59167 12.8299 7.42504C12.9047 7.25204 12.8252 7.05054 12.6529 6.97579L11.3966 6.42879L12.8279 5.60254C12.9069 5.55692 12.9634 5.48317 12.9869 5.39492C13.0104 5.30667 12.9982 5.21467 12.9525 5.13567C12.8615 4.97917 12.6435 4.91967 12.4857 5.01054L11.0641 5.83117L11.2164 4.48792C11.2269 4.39679 11.2011 4.30717 11.144 4.23542C11.0871 4.16417 11.006 4.11942 10.9161 4.10954C10.7249 4.08692 10.5574 4.22517 10.5377 4.41154L10.3446 6.25667L8.37498 7.40254V5.12717L9.86561 4.01317C9.93611 3.96142 9.98223 3.88492 9.99548 3.79767C10.0092 3.70654 9.98498 3.61104 9.92923 3.53554C9.82036 3.38792 9.61236 3.35404 9.46311 3.46392L8.37498 4.27554V2.62617C8.37498 2.42492 8.17686 2.28467 7.99898 2.28467C7.82211 2.28467 7.62498 2.42492 7.62498 2.62617V4.26554L6.55336 3.46379C6.40673 3.35492 6.19298 3.38792 6.08386 3.53542C6.02673 3.61242 6.00211 3.70942 6.01598 3.80129C6.02898 3.88717 6.07448 3.96229 6.14311 4.01242L7.62498 5.11667V7.40142L5.68486 6.28067L5.47823 4.43429C5.45761 4.26204 5.31411 4.13217 5.14411 4.13217C5.13048 4.13217 5.11636 4.13292 5.10336 4.13467C4.91886 4.15579 4.78473 4.32517 4.80448 4.51379L4.96223 5.85729L3.50711 5.02267C3.45561 4.99329 3.39711 4.97767 3.33798 4.97767C3.21573 4.97767 3.10223 5.04342 3.04173 5.14942C2.94886 5.31129 3.00498 5.52029 3.16798 5.61579L4.63236 6.45554L3.37823 7.00629C3.29448 7.04304 3.23011 7.11004 3.19723 7.19492C3.16411 7.27992 3.16623 7.37279 3.20286 7.45592C3.27486 7.62192 3.47623 7.70667 3.65273 7.63242L5.36998 6.87842L7.31686 7.99467L5.36586 9.12104L3.66323 8.37942C3.49411 8.30604 3.28686 8.38842 3.21386 8.55629C3.13836 8.72867 3.21761 8.93054 3.39061 9.00654L4.62961 9.54604L3.17686 10.3848C3.01473 10.4798 2.95898 10.6892 3.05261 10.8515C3.11336 10.9568 3.22711 11.0222 3.34886 11.0222C3.40948 11.0222 3.46873 11.006 3.51911 10.9764L4.98161 10.132L4.82648 11.4948C4.81648 11.5857 4.84236 11.6749 4.89961 11.7464C4.95661 11.8175 5.03786 11.8624 5.12536 11.8719C5.13873 11.8738 5.15311 11.8742 5.16736 11.8742C5.34111 11.8742 5.48686 11.7439 5.50648 11.5702L5.70198 9.70667L7.62498 8.58829V10.8583L6.30448 11.9629C6.16348 12.081 6.14748 12.2967 6.26773 12.442C6.33098 12.5204 6.43111 12.5672 6.53561 12.5672C6.62998 12.5672 6.69336 12.5267 6.74073 12.489L7.62498 11.7474V13.3739C7.62498 13.5752 7.82211 13.7154 7.99898 13.7154C8.17686 13.7154 8.37498 13.5752 8.37498 13.3739V11.7364L9.27286 12.4905C9.42236 12.6109 9.62461 12.5824 9.73923 12.4435C9.79673 12.3744 9.82711 12.2885 9.82461 12.2014C9.82198 12.1068 9.78098 12.0219 9.70973 11.9625L8.37498 10.847V8.58292L10.3385 9.71742L10.5467 11.5812C10.5674 11.753 10.7112 11.8827 10.8816 11.8827C10.8977 11.8827 10.9077 11.8818 10.9187 11.8802C11.0087 11.8703 11.0895 11.8255 11.1461 11.7545C11.2034 11.6828 11.2291 11.5929 11.2185 11.5015L11.0599 10.1407L12.4922 10.962C12.5436 10.9917 12.6024 11.0073 12.6621 11.0073C12.7845 11.0073 12.898 10.9414 12.9581 10.8354C13.0512 10.6729 12.995 10.4638 12.832 10.3694Z" fill="#222222"/>
</svg>
