<svg width="16" height="16" viewBox="0 0 16 16" fill="none" xmlns="http://www.w3.org/2000/svg">
<g clip-path="url(#clip0_57_3280)">
<path fill-rule="evenodd" clip-rule="evenodd" d="M3.75632 6.28865L3.93329 5.75774H3.63632C3.36844 5.75774 3.15147 5.54077 3.15147 5.27289C3.15147 5.00501 3.36844 4.78804 3.63632 4.78804C3.93329 4.78804 4.25644 4.78804 4.25644 4.78804C4.25644 4.78804 4.48772 4.09423 4.63099 3.66514C4.69693 3.46707 4.88214 3.3335 5.09087 3.3335C6.22226 3.3335 9.77766 3.3335 10.909 3.3335C11.1178 3.3335 11.303 3.46707 11.3689 3.66514L11.7435 4.78804H12.3636C12.6315 4.78804 12.8484 5.00501 12.8484 5.27289C12.8484 5.54077 12.6315 5.75774 12.3636 5.75774H12.0666L12.2436 6.28865C12.8703 6.45059 13.3333 7.0198 13.3333 7.69713V12.0608C13.3333 12.3286 13.1163 12.5456 12.8484 12.5456C12.5522 12.5456 12.175 12.5456 11.8787 12.5456C11.6109 12.5456 11.3939 12.3286 11.3939 12.0608V11.5759H4.60602V12.0608C4.60602 12.3286 4.38905 12.5456 4.12117 12.5456C3.82493 12.5456 3.44772 12.5456 3.15147 12.5456C2.8836 12.5456 2.66663 12.3286 2.66663 12.0608C2.66663 11.1386 2.66663 9.09883 2.66663 7.69713C2.66663 7.0198 3.12966 6.45059 3.75632 6.28865ZM4.60602 8.18198C4.8739 8.18198 5.09087 8.39895 5.09087 8.66683C5.09087 8.93471 4.8739 9.15168 4.60602 9.15168C4.18299 9.15168 3.63632 9.15168 3.63632 9.15168V10.6062H5.27608C5.27608 10.6062 5.84578 9.46707 6.11172 8.93495C6.1939 8.77058 6.36166 8.66683 6.54541 8.66683C7.2082 8.66683 8.79172 8.66683 9.4545 8.66683C9.63826 8.66683 9.80602 8.77058 9.8882 8.93495C10.1541 9.46707 10.7238 10.6062 10.7238 10.6062H12.3636V9.15168H11.3939C11.126 9.15168 10.909 8.93471 10.909 8.66683C10.909 8.39895 11.126 8.18198 11.3939 8.18198C11.8169 8.18198 12.3636 8.18198 12.3636 8.18198V7.69713C12.3636 7.42925 12.1466 7.21228 11.8787 7.21228C10.351 7.21228 5.64893 7.21228 4.12117 7.21228C3.85329 7.21228 3.63632 7.42925 3.63632 7.69713V8.18198H4.60602ZM9.15487 9.63653H6.84505L6.3602 10.6062H9.63972L9.15487 9.63653ZM5.44044 4.30319L4.7939 6.24259H11.206L10.5595 4.30319H5.44044Z" fill="#222222"/>
</g>
<defs>
<clipPath id="clip0_57_3280">
<rect width="16" height="16" fill="white"/>
</clipPath>
</defs>
</svg>
