<svg width="16" height="16" viewBox="0 0 16 16" fill="none" xmlns="http://www.w3.org/2000/svg">
<path d="M6.05095 7.17476L10.0399 9.47779M7.19117 4.50893L5.79503 3.70287C5.62981 3.60747 5.41853 3.66408 5.32313 3.82931L2.7898 8.21718C2.6944 8.38242 2.75102 8.59368 2.91625 8.68908L4.31238 9.49514C4.47761 9.59053 4.68888 9.53393 4.78428 9.36869L7.31762 4.98083C7.41301 4.8156 7.3564 4.60432 7.19117 4.50893ZM13.1746 7.96347L11.7785 7.15741C11.6132 7.06201 11.402 7.11863 11.3066 7.28386L8.77325 11.6717C8.67785 11.837 8.73445 12.0482 8.89969 12.1436L10.2958 12.9497C10.4611 13.0451 10.6723 12.9885 10.7677 12.8232L13.3011 8.43537C13.3965 8.27015 13.3399 8.05888 13.1746 7.96347ZM1.8697 6.3563L3.25151 3.96292C3.34691 3.79769 3.55819 3.74108 3.72341 3.83647L4.62093 4.35465C4.78616 4.45005 4.84277 4.66133 4.74738 4.82655L3.36556 7.21993C3.27016 7.38518 3.05889 7.44177 2.89366 7.34638L1.99614 6.8282C1.83091 6.7328 1.77429 6.52154 1.8697 6.3563ZM12.8394 12.6896L14.2212 10.2963C14.3166 10.131 14.26 9.91975 14.0947 9.82435L13.1972 9.30617C13.032 9.21077 12.8207 9.26739 12.7253 9.43262L11.3435 11.826C11.2481 11.9912 11.3047 12.2025 11.4699 12.2979L12.3675 12.8161C12.5327 12.9115 12.7439 12.8549 12.8394 12.6896Z" stroke="#222222" stroke-linecap="round" stroke-linejoin="round"/>
</svg>
