<svg width="16" height="16" viewBox="0 0 16 16" fill="none" xmlns="http://www.w3.org/2000/svg">
<path d="M7.95 9.32096C7.24315 9.32096 6.53629 9.61202 6.07892 10.1526C5.66312 10.6515 4.91469 9.98624 5.33048 9.48728C5.99576 8.73885 6.95209 8.32305 7.95 8.32305C8.94791 8.32305 9.90424 8.73885 10.5695 9.48728C10.9853 9.98624 10.2369 10.6515 9.82108 10.1526C9.36371 9.61202 8.65685 9.32096 7.95 9.32096ZM7.95 12.8137C7.40946 12.8137 6.95209 12.3563 6.95209 11.8157C6.95209 11.2752 7.40946 10.8178 7.95 10.8178C8.49053 10.8178 8.94791 11.2752 8.94791 11.8157C8.94791 12.3563 8.49053 12.8137 7.95 12.8137ZM7.95 6.82618C6.61945 6.82618 5.41364 7.28356 4.45731 8.23989C4.04151 8.65569 3.2515 8.03199 3.75046 7.53304C4.87311 6.41039 6.36997 5.82827 7.95 5.82827C9.53003 5.82827 11.0269 6.41039 12.1495 7.53304C12.6485 8.03199 11.8585 8.65569 11.4427 8.23989C10.4864 7.28356 9.28055 6.82618 7.95 6.82618ZM7.95 4.33141C6.03734 4.33141 4.24941 5.03826 2.87728 6.32723C2.37833 6.78461 1.67147 6.07775 2.17043 5.62038C3.79204 4.12351 5.78786 3.3335 7.95 3.3335C10.1121 3.3335 12.108 4.12351 13.7296 5.62038C14.2285 6.07775 13.5217 6.78461 13.0227 6.32723C11.6506 5.03826 9.86266 4.33141 7.95 4.33141Z" fill="#222222"/>
</svg>
