<svg width="8" height="8" viewBox="0 0 8 8" fill="none" xmlns="http://www.w3.org/2000/svg">
<path d="M6.77206 4.00034L3.67406 0.857844C3.47856 0.660844 3.47856 0.340844 3.67406 0.143844C3.86956 -0.0531563 4.18606 -0.0531563 4.38106 0.143844L7.83056 3.64334C8.01806 3.83284 8.01906 4.16734 7.83056 4.35784L4.38056 7.85734C4.18556 8.05434 3.86856 8.05434 3.67356 7.85734C3.47806 7.66034 3.47806 7.34034 3.67356 7.14334L6.77206 4.00034Z" fill="#121313"/>
<path d="M3.27206 4.00034L0.174057 0.857844C-0.0214424 0.660844 -0.0214424 0.340844 0.174057 0.143844C0.369557 -0.0531563 0.686057 -0.0531563 0.881057 0.143844L4.33056 3.64334C4.51806 3.83284 4.51906 4.16734 4.33056 4.35784L0.881057 7.85734C0.685557 8.05434 0.369058 8.05434 0.174057 7.85734C-0.0214424 7.66034 -0.0214424 7.34034 0.174057 7.14334L3.27206 4.00034Z" fill="#121313"/>
</svg>
