<svg width="8" height="8" viewBox="0 0 8 8" fill="none" xmlns="http://www.w3.org/2000/svg">
<path d="M1.22794 4.00034L4.32594 0.857844C4.52144 0.660844 4.52144 0.340844 4.32594 0.143844C4.13044 -0.0531563 3.81394 -0.0531563 3.61894 0.143844L0.169443 3.64334C-0.0180574 3.83284 -0.0190574 4.16734 0.169443 4.35784L3.61944 7.85734C3.81444 8.05434 4.13144 8.05434 4.32644 7.85734C4.52194 7.66034 4.52194 7.34034 4.32644 7.14334L1.22794 4.00034Z" fill="#121313"/>
<path d="M4.72794 4.00034L7.82594 0.857844C8.02144 0.660844 8.02144 0.340844 7.82594 0.143844C7.63044 -0.0531563 7.31394 -0.0531563 7.11894 0.143844L3.66944 3.64334C3.48194 3.83284 3.48094 4.16734 3.66944 4.35784L7.11894 7.85734C7.31444 8.05434 7.63094 8.05434 7.82594 7.85734C8.02144 7.66034 8.02144 7.34034 7.82594 7.14334L4.72794 4.00034Z" fill="#121313"/>
</svg>
